<svg xmlns="http://www.w3.org/2000/svg" width="210" height="42" viewBox="0 0 210 42" fill="none"><g clip-path="url(#a)"><g clip-path="url(#b)"><path d="M142.999 40.245h-2.351a.113.113 0 0 0-.103.067l-.647 1.519a.11.11 0 0 1-.103.067h-.476a.112.112 0 0 1-.102-.156l2.529-5.759a.112.112 0 0 1 .205 0l2.463 5.759a.112.112 0 0 1-.103.155h-.478a.11.11 0 0 1-.103-.068l-.63-1.517a.11.11 0 0 0-.103-.068h.002Zm-.246-.771-.818-1.952a.111.111 0 0 0-.205 0l-.833 1.952a.112.112 0 0 0 .103.155h1.652c.08 0 .134-.081.103-.154l-.002-.001Zm2.555 2.313v-5.725c0-.101.122-.15.192-.078l4.19 4.393c.07.073.192.023.192-.077v-4.16c0-.061.051-.111.112-.111h.428c.061 0 .111.05.111.111v5.742c0 .101-.122.15-.192.078l-4.191-4.393a.11.11 0 0 0-.191.078v4.14a.113.113 0 0 1-.112.112h-.428a.112.112 0 0 1-.111-.111Zm6.422-2.818c0-1.751 1.364-3.036 3.053-3.036 1.689 0 3.053 1.285 3.053 3.036 0 1.751-1.354 3.036-3.053 3.036-1.698 0-3.053-1.294-3.053-3.036Zm.669 0c0 1.346 1.064 2.42 2.383 2.42s2.384-1.074 2.384-2.42c0-1.346-1.065-2.42-2.384-2.42s-2.383 1.074-2.383 2.42Zm9.354-1.844a.11.11 0 0 1-.156-.035 1.393 1.393 0 0 0-.287-.339 1.055 1.055 0 0 0-.659-.203c-.581 0-.986.36-.986.907 0 .228.062.36.22.51.176.176.396.272.616.37l.563.247c.561.244 1.052.512 1.279 1.15a.194.194 0 0 0 .007.023c.249 1.325-.618 2.25-1.814 2.25-.387 0-.871-.08-1.276-.476-.262-.254-.431-.608-.519-.933a.11.11 0 0 1 .078-.133l.412-.115a.11.11 0 0 1 .137.081c.059.26.185.48.332.634.255.255.546.326.845.326.801 0 1.178-.572 1.178-1.161a.875.875 0 0 0-.29-.687c-.168-.158-.396-.263-.704-.404l-.527-.247c-.229-.106-.519-.228-.783-.483a1.22 1.22 0 0 1-.404-.959c0-.906.694-1.513 1.645-1.513.36 0 .65.07.941.264.208.138.388.338.519.556a.113.113 0 0 1-.033.153l-.333.22-.001-.003Zm3.886-.984c0-.061.05-.111.111-.111h1.085c.59 0 1.426.06 2.164.686.537.448 1.003 1.197 1.003 2.252 0 1.232-.607 1.891-1.029 2.252-.536.458-1.101.677-2.147.677h-1.077a.112.112 0 0 1-.111-.111V36.14l.001.001Zm.651 5.03c0 .062.05.112.111.112h.46c.467 0 1.109-.053 1.681-.528.439-.37.791-.95.791-1.786 0-1.408-.986-2.323-2.473-2.323h-.46a.112.112 0 0 0-.111.112v4.413h.001Zm7.842-4.525h-2.17a.113.113 0 0 0-.112.112v1.52c0 .06.051.11.112.11h2.099c.061 0 .112.051.112.112v.393a.113.113 0 0 1-.112.111h-2.099a.113.113 0 0 0-.112.112v2.055c0 .062.051.112.112.112h2.17c.061 0 .112.05.112.111v.393a.113.113 0 0 1-.112.111h-2.821a.113.113 0 0 1-.112-.111V36.14c0-.061.051-.111.112-.111h2.821c.061 0 .112.05.112.111v.392a.113.113 0 0 1-.112.112v.001Zm6.382 2.416c0-.061.051-.111.112-.111h2.334v.14c0 .651-.193 1.355-.563 1.856-.175.237-.835 1.055-2.182 1.055-1.742 0-3.044-1.328-3.044-3.035s1.311-3.036 3.061-3.036c.563 0 1.223.14 1.796.58.232.178.45.404.614.611a.112.112 0 0 1-.012.153l-.316.287a.111.111 0 0 1-.165-.017 3.044 3.044 0 0 0-.482-.507c-.282-.229-.721-.494-1.425-.494-1.416 0-2.402 1.065-2.402 2.43 0 1.6 1.276 2.41 2.384 2.41.783 0 1.46-.396 1.795-.986a1.84 1.84 0 0 0 .227-.71.113.113 0 0 0-.11-.126h-1.51a.113.113 0 0 1-.112-.112v-.392.004Zm4.294-2.921v5.03c0 .06.051.111.112.111h1.396c.061 0 .111.05.111.112v.392c0 .061-.05.111-.111.111h-2.047a.113.113 0 0 1-.112-.111V36.14c0-.061.051-.111.112-.111h.428c.061 0 .111.05.111.111v.001Zm1.882 2.828c0-1.751 1.364-3.036 3.053-3.036 1.689 0 3.053 1.285 3.053 3.036 0 1.751-1.355 3.036-3.053 3.036-1.697 0-3.053-1.294-3.053-3.036Zm.67 0c0 1.346 1.064 2.42 2.383 2.42s2.384-1.074 2.384-2.42c0-1.346-1.065-2.42-2.384-2.42s-2.383 1.074-2.383 2.42Zm7.688-2.939c.326 0 .914.026 1.345.37.185.14.528.501.528 1.213 0 .258-.048.689-.421 1.028a.112.112 0 0 0 .034.185c.672.26.923.901.923 1.418 0 .563-.282 1.02-.598 1.267-.467.37-1.003.387-1.408.387h-1.349a.113.113 0 0 1-.112-.111V36.14c0-.061.051-.111.112-.111h.946Zm-.405 2.466c0 .061.051.111.112.111h.38c.344 0 1.153-.07 1.153-.977 0-.967-.95-.985-1.134-.985h-.399a.113.113 0 0 0-.112.112v1.739Zm0 2.675c0 .062.051.112.112.112h.636c.378 0 .747-.027 1.029-.247a.989.989 0 0 0 .387-.81.949.949 0 0 0-.502-.861c-.219-.124-.527-.176-.994-.176h-.557a.113.113 0 0 0-.112.111v1.871h.001Zm3.695-2.202c0-1.751 1.364-3.036 3.053-3.036 1.689 0 3.053 1.285 3.053 3.036 0 1.751-1.355 3.036-3.053 3.036-1.699 0-3.053-1.294-3.053-3.036Zm.669 0c0 1.346 1.065 2.42 2.384 2.42s2.384-1.074 2.384-2.42c0-1.346-1.065-2.42-2.384-2.42s-2.384 1.074-2.384 2.42Zm5.239-22.16-5.596-.458 5.621-.188a.176.176 0 0 0 .173-.18l-.029-.812a.177.177 0 0 0-.185-.168l-6.339.211a.177.177 0 0 0-.174.18l.029.812c.003.054.029.1.069.13a.173.173 0 0 0-.06.115l-.08.924a.176.176 0 0 0 .009.073.24.24 0 0 0-.01.032l-.217 1.022a.195.195 0 0 0-.002.048l-.352 1.03-.007.032-.303.626a.176.176 0 0 0-.066.061l-.367.593-.02-.01a9.157 9.157 0 0 1-1.415 1.756c-1.763 1.712-4.108 2.655-6.604 2.659-5.154.008-9.354-4.039-9.364-9.023v-.648c-.008-3.714 2.315-6.916 5.631-8.31a9.578 9.578 0 0 1 3.698-.746h.016V0h-.028c-4.306.006-8.355 1.64-11.402 4.598-3.048 2.957-4.722 6.878-4.714 11.042l.002.648c.008 4.164 1.696 8.079 4.754 11.026 3.058 2.946 7.113 4.566 11.419 4.56a16.526 16.526 0 0 0 6.386-1.287 16.126 16.126 0 0 0 6.996-5.644.166.166 0 0 0 .031-.036l.055-.088c.252-.37.489-.752.709-1.145l.012-.02.026-.049s.115-.18.153-.258l.557-1.156a.172.172 0 0 0-.087-.232l-2.833-1.161 2.837.905c.094.03.196-.02.227-.11l.376-1.102a.173.173 0 0 0-.114-.22l-2.967-.946 3.067.609a.181.181 0 0 0 .213-.135l.216-1.022a.173.173 0 0 0-.14-.205l-4.255-.844 4.336.355a.178.178 0 0 0 .194-.159l.081-.924a.176.176 0 0 0-.164-.188l.001-.003Z" fill="#2D85FB"/><path d="m197.559 14.346.108.687a.18.18 0 0 0 .205.146l6.292-.929a.174.174 0 0 0 .15-.198l-.108-.688a.18.18 0 0 0-.205-.145l-6.292.928a.176.176 0 0 0-.151.199h.001Zm-.287-1.067.189.671a.18.18 0 0 0 .22.122l6.165-1.622a.174.174 0 0 0 .127-.213l-.189-.672a.182.182 0 0 0-.221-.122l-6.165 1.622a.174.174 0 0 0-.126.214Zm-.385-.967.221.539a.182.182 0 0 0 .233.098l5.961-2.284a.171.171 0 0 0 .101-.227l-.221-.54a.182.182 0 0 0-.233-.097l-5.962 2.284a.172.172 0 0 0-.1.227Zm-.483-.92.224.41a.184.184 0 0 0 .243.072l5.688-2.91a.171.171 0 0 0 .075-.235l-.224-.41a.185.185 0 0 0-.244-.073l-5.687 2.91a.17.17 0 0 0-.075.236Zm-.61-.912.269.384c.056.08.167.1.25.047l5.35-3.498a.17.17 0 0 0 .048-.241l-.269-.384a.185.185 0 0 0-.25-.047l-5.35 3.498a.17.17 0 0 0-.048.241Zm-.664-.795.231.266a.184.184 0 0 0 .253.02l4.951-4.044a.17.17 0 0 0 .022-.246l-.232-.266a.184.184 0 0 0-.253-.02l-4.951 4.045a.17.17 0 0 0-.021.245Zm-.741-.72.174.16a.185.185 0 0 0 .254-.006l4.491-4.55a.17.17 0 0 0-.007-.246l-.173-.16a.186.186 0 0 0-.255.005l-4.49 4.551a.169.169 0 0 0 .006.246Zm-.804-.639.095.07c.08.058.192.044.252-.032l3.969-5.012a.17.17 0 0 0-.033-.243l-.096-.071a.184.184 0 0 0-.252.032l-3.969 5.012a.17.17 0 0 0 .034.244Zm-.911-.579.103.06a.182.182 0 0 0 .246-.06l3.385-5.424a.172.172 0 0 0-.061-.24l-.103-.06a.184.184 0 0 0-.247.06l-3.384 5.424a.17.17 0 0 0 .061.24Zm-.907-.447c.09.04.197.002.238-.086l2.736-5.781a.17.17 0 0 0-.089-.23.182.182 0 0 0-.238.085l-2.736 5.78a.17.17 0 0 0 .089.231Zm-1.001-.365a.12.12 0 0 0 .151-.074L192.98.755a.115.115 0 0 0-.077-.146.12.12 0 0 0-.151.074l-2.064 6.106a.115.115 0 0 0 .078.146Zm-1.218-.286a.121.121 0 0 0 .138-.096l.093-.542.995-5.795a.075.075 0 0 0 0-.037.117.117 0 0 0-.098-.096.122.122 0 0 0-.139.095l-.996 5.804-.092.534a.116.116 0 0 0 .097.133h.002Zm-10.614 8.714-.039-.646C178.384 6.122 170.738-.468 161.85.026c-8.887.494-15.701 7.888-15.19 16.483l.038.646c.511 8.595 8.157 15.185 17.045 14.691 8.888-.494 15.702-7.888 15.191-16.483Zm-25.45 1.416-.039-.647c-.295-4.975 3.65-9.256 8.796-9.542 5.145-.287 9.572 3.53 9.867 8.505l.039.647c.148 2.488-.764 4.802-2.357 6.53a9.44 9.44 0 0 1-6.437 3.013c-5.146.286-9.572-3.53-9.868-8.505l-.001-.001Z" fill="#2D85FB"/><path d="M172.163 16.518a6.667 6.667 0 0 1-.002-.141l-.003.141c-.062 2.19-.942 4.205-2.368 5.752a9.436 9.436 0 0 1-6.437 3.014c-5.145.286-9.572-3.53-9.868-8.505l-.024-.414h-6.808c.001.048.005.097.008.145l.038.646c.511 8.595 8.157 15.185 17.044 14.691 4.833-.269 9.054-2.579 11.815-6.012-2.148-2.662-3.338-5.9-3.395-9.317Z" fill="url(#c)"/><path d="M188.274.008c-4.305.006-8.355 1.64-11.402 4.598a16.05 16.05 0 0 0-1.333 1.461c1.934 2.409 3.162 5.388 3.356 8.656l.038.647c.013.22.022.44.025.658v-.393c-.009-3.714 2.314-6.916 5.631-8.31a9.54 9.54 0 0 1 3.698-.745h.016V.008h-.029Zm-16.115 16.287v.125c0-.105 0-.21-.002-.316v.19l.002.001Z" fill="url(#d)"/><path d="m178.934 15.363-.039-.646C178.384 6.122 170.738-.468 161.85.026c-8.887.494-15.701 7.888-15.19 16.483l.038.646c.511 8.595 8.157 15.185 17.045 14.691 8.888-.494 15.702-7.888 15.191-16.483Zm-25.45 1.416-.039-.647c-.295-4.975 3.65-9.256 8.796-9.542 5.145-.287 9.572 3.53 9.867 8.505l.039.647c.148 2.488-.764 4.802-2.357 6.53a9.44 9.44 0 0 1-6.437 3.013c-5.146.286-9.572-3.53-9.868-8.505l-.001-.001Z" fill="url(#e)"/><path d="M149.262 13.103V31.41a.462.462 0 0 1-.462.462h-5.721a.462.462 0 0 1-.462-.462V13.103a9.106 9.106 0 0 0-3.161-6.903.732.732 0 0 1-.177-.867l2.419-5.066a.467.467 0 0 1 .685-.185c4.151 2.845 6.88 7.62 6.88 13.021h-.001Z" fill="#2D85FB"/></g><path d="M122.853 41.44a.436.436 0 0 1-.435-.436V.752a.434.434 0 1 1 .869 0v40.254c0 .24-.193.436-.434.436v-.002Z" fill="#2D85FB"/><g clip-path="url(#f)"><path d="M19.963 10.447c-.697-.325-1.195 0-1.195.777v14.56c0 .777.473 1.103 1.195.777l.921-.401c.573-.276.847-.652.847-1.278v-12.73c0-.627-.274-1.028-.847-1.278l-.92-.427Zm21.907 4.536c-1.17 0-2.29.502-3.037 1.278v-5.137c0-.376-.224-.576-.573-.576h-1.792c-.374 0-.573.225-.573.576v14.76c0 .376.224.576.573.576h1.618c.373 0 .572-.225.572-.576v-.626c.697.802 1.992 1.403 3.286 1.403 2.813 0 5.253-2.581 5.253-5.839 0-3.308-2.465-5.839-5.327-5.839Zm-26.81.2c-.374 0-.573.226-.573.577v.627c-.648-.802-1.867-1.404-3.062-1.404-2.938 0-5.477 2.531-5.477 5.84 0 3.307 2.39 5.587 5.402 5.587 1.344 0 2.39-.626 2.987-1.278-.024 2.306-1.22 3.358-3.31 3.358-1.096-.025-2.141-.35-3.336-1.127-.324-.226-.672-.15-.847.2l-.722 1.428c-.174.326-.124.652.225.878 1.493.977 3.26 1.453 4.78 1.453 3.982 0 6.173-2.155 6.173-7.142v-8.42c0-.376-.224-.576-.573-.576H15.06Zm13.74-.2c-3.111 0-5.725 2.456-5.725 5.84 0 3.382 2.564 5.838 5.726 5.838 3.111 0 5.725-2.456 5.725-5.839 0-3.383-2.564-5.839-5.726-5.839Zm25.317 0c-3.111 0-5.725 2.456-5.725 5.84 0 3.382 2.564 5.838 5.725 5.838 3.112 0 5.726-2.456 5.726-5.839 0-3.383-2.564-5.839-5.726-5.839Zm18.471 7.343c-.323 0-.497.15-.672.426-.423.752-1.145 1.052-2.016 1.052-1.519 0-2.689-1.278-2.689-2.982 0-1.729 1.195-2.982 2.689-2.982.846 0 1.493.35 1.917 1.002.174.301.398.426.697.426h1.941c.399 0 .623-.25.498-.651-.647-2.13-2.738-3.609-5.103-3.609-3.037 0-5.551 2.456-5.551 5.84 0 3.382 2.414 5.838 5.551 5.838 2.415 0 4.53-1.453 5.153-3.684.1-.4-.15-.626-.523-.626h-1.892v-.05Zm9.161-7.343c-3.111 0-5.725 2.456-5.725 5.84 0 3.382 2.564 5.838 5.725 5.838 3.112 0 5.726-2.456 5.726-5.839 0-3.383-2.564-5.839-5.726-5.839Zm18.944 0a4.06 4.06 0 0 0-3.26 1.604c-.623-.927-1.669-1.604-2.988-1.604-1.295 0-2.216.577-2.813 1.354v-.577c0-.376-.224-.576-.573-.576h-1.618c-.373 0-.572.225-.572.576v10.1c0 .375.224.575.572.575h1.793c.373 0 .572-.225.572-.576v-5.538c0-1.579.772-2.531 1.992-2.531 1.195 0 1.842.827 1.842 2.43v5.64c0 .375.224.575.572.575h1.793c.373 0 .572-.225.572-.576v-5.538c0-1.579.772-2.531 1.992-2.531 1.219 0 1.842.827 1.842 2.43v5.64c0 .375.224.575.572.575h1.793c.373 0 .572-.225.572-.576v-5.99c-.05-2.981-1.767-4.886-4.655-4.886ZM11.624 23.78c-1.519 0-2.788-1.203-2.788-2.982 0-1.804 1.27-2.982 2.788-2.982 1.518 0 2.788 1.203 2.788 2.982-.025 1.78-1.27 2.982-2.788 2.982Zm17.176.025c-1.543 0-2.788-1.253-2.788-2.982 0-1.729 1.245-2.982 2.788-2.982 1.544 0 2.789 1.253 2.789 2.982.024 1.73-1.245 2.982-2.788 2.982Zm12.721 0c-1.493 0-2.763-1.203-2.763-2.982 0-1.78 1.245-2.982 2.763-2.982 1.494 0 2.763 1.203 2.763 2.982 0 1.804-1.27 2.982-2.763 2.982Zm12.596 0c-1.543 0-2.788-1.253-2.788-2.982 0-1.729 1.245-2.982 2.788-2.982 1.544 0 2.788 1.253 2.788 2.982.025 1.73-1.244 2.982-2.788 2.982Zm27.632 0c-1.543 0-2.788-1.253-2.788-2.982 0-1.729 1.245-2.982 2.788-2.982 1.544 0 2.788 1.253 2.788 2.982.025 1.73-1.22 2.982-2.788 2.982Zm-19.69-1.027c-.996 0-1.917.777-1.917 1.93 0 1.177.92 1.954 1.916 1.954.996 0 1.917-.777 1.917-1.93a1.913 1.913 0 0 0-1.917-1.954Z" fill="url(#g)"/></g></g><defs><linearGradient id="c" x1="172.545" y1="14.829" x2="160.375" y2="22.115" gradientUnits="userSpaceOnUse"><stop stop-color="#0B23F5"/><stop offset="1" stop-color="#0B23F5" stop-opacity="0"/></linearGradient><linearGradient id="d" x1="175.403" y1="11.62" x2="185.424" y2="5.489" gradientUnits="userSpaceOnUse"><stop stop-color="#0B23F5"/><stop offset="1" stop-color="#0B23F5" stop-opacity="0"/></linearGradient><linearGradient id="e" x1="146.297" y1="15.761" x2="160.948" y2="15.917" gradientUnits="userSpaceOnUse"><stop stop-color="#0B23F5"/><stop offset="1" stop-color="#0B23F5" stop-opacity="0"/></linearGradient><linearGradient id="g" x1="23.042" y1="20.823" x2="102.582" y2="42.359" gradientUnits="userSpaceOnUse"><stop stop-color="#0420FC"/><stop offset="1" stop-color="#03B4FC"/></linearGradient><clipPath id="a"><path fill="#fff" transform="translate(4.666)" d="M0 0h199.678v42H0z"/></clipPath><clipPath id="b"><path fill="#fff" transform="translate(139.208)" d="M0 0h65.236v42.004H0z"/></clipPath><clipPath id="f"><path fill="#fff" transform="translate(5.948 10.322)" d="M0 0h99.4v21H0z"/></clipPath></defs></svg>