<svg xmlns="http://www.w3.org/2000/svg" width="275" height="60" viewBox="0 0 275 60" fill="none"><g clip-path="url(#a)"><path d="M267.19 13.83c-1.04 0-1.65.41-1.94 1.31l-6.49 18.83-7.46-18.83c-.34-.9-.9-1.31-1.87-1.31h-6.27c-1.24 0-1.73.75-1.16 1.92l12.83 28.99-1.04 2.21c-1.58 3.45-3.19 4.76-4.76 4.76-.9 0-1.87-.27-2.77-.68-.97-.49-1.8-.34-2.29.61l-1.8 3.45c-.41.83-.34 1.65.49 2.28 1.65 1.31 3.67 2.28 6.42 2.28 6.15 0 9.72-4.54 13.05-12.98l12.22-30.91c.49-1.17.07-1.92-1.17-1.92h-6l.02-.02-.01.01ZM8.21 29.77c0-5.1 3.67-8.48 8.02-8.48s7.95 3.38 7.95 8.48c0 5.1-3.6 8.48-7.95 8.48s-8.02-3.45-8.02-8.48ZM0 29.84c0 9.38 6.83 15.87 15.46 15.87 3.86 0 6.83-1.8 8.55-3.67-.07 6.56-3.52 9.53-9.45 9.53-3.18 0-6.15-.97-9.6-3.18-.9-.63-1.92-.41-2.41.56L.48 53.03c-.49.97-.34 1.87.63 2.48 4.28 2.77 9.31 4.13 13.66 4.13 11.4 0 17.67-6.15 17.67-20.29V15.46c0-1.05-.63-1.65-1.65-1.65H26.1c-1.05 0-1.65.63-1.65 1.65v1.8c-1.87-2.28-5.32-4.01-8.77-4.01C7.27 13.24 0 20.41 0 29.82m57.35 0c0-4.91 3.6-8.48 8.02-8.48s8 3.6 8 8.48c0 4.88-3.6 8.48-8 8.48s-8.02-3.6-8.02-8.48Zm-8.36 0c0 9.6 7.31 16.57 16.36 16.57S81.7 39.42 81.7 29.82c0-9.6-7.31-16.57-16.35-16.57-9.04 0-16.36 6.97-16.36 16.57Zm80.76 0c0-4.91 3.6-8.48 8.02-8.48s8.02 3.6 8.02 8.48c0 4.88-3.59 8.48-8.02 8.48s-8.02-3.6-8.02-8.48Zm-8.36 0c0 9.6 7.31 16.57 16.36 16.57s16.36-6.97 16.36-16.57c0-9.6-7.32-16.57-16.36-16.57s-16.36 6.97-16.36 16.57Zm44.85 0c0-5.03 3.6-8.48 7.88-8.48 4.28 0 7.87 3.45 7.87 8.48s-3.59 8.48-7.87 8.48-7.88-3.38-7.88-8.48Zm-.33-12.49v-1.87c0-1.05-.63-1.65-1.65-1.65h-4.61c-1.04 0-1.65.63-1.65 1.65v41.97c0 1.05.63 1.65 1.65 1.65h5.1c1.05 0 1.65-.63 1.65-1.65v-14.7c1.99 2.07 5.25 3.65 8.62 3.65 8.41 0 15.31-7.17 15.31-16.57s-7.05-16.57-15.26-16.57c-3.87 0-7.12 1.65-9.19 4.08m49.02 12.47c0-5.1 3.6-8.48 7.88-8.48 4.28 0 7.87 3.38 7.87 8.48 0 5.1-3.59 8.48-7.87 8.48s-7.88-3.45-7.88-8.48Zm-8.36 0c0 9.38 7.05 16.57 15.26 16.57 3.86 0 7.12-1.65 9.19-4.08v1.87c0 1.05.63 1.65 1.65 1.65h4.62c1.04 0 1.65-.63 1.65-1.65V15.43c0-1.05-.63-1.65-1.65-1.65h-4.62c-1.04 0-1.65.63-1.65 1.65v1.99c-1.95-2.36-5.44-4.2-9.12-4.2-8.43 0-15.33 7.17-15.33 16.57Zm-112.71 0c0-5.03 3.6-8.48 7.87-8.48s7.87 3.45 7.87 8.48-3.6 8.48-7.87 8.48-7.87-3.38-7.87-8.48ZM87.19.61c-1.05 0-1.65.63-1.65 1.65v41.9c0 1.05.63 1.65 1.65 1.65h4.62c1.05 0 1.65-.63 1.65-1.65v-1.8c1.99 2.28 5.74 4.01 9.38 4.01 8.07 0 15.04-7.31 15.04-16.57 0-9.26-7.05-16.57-15.26-16.57-3.3 0-6.56 1.46-8.7 3.67V2.26c0-1.05-.63-1.65-1.65-1.65h-5.1.02Zm108.66 0c-1.04 0-1.65.63-1.65 1.65v41.9c0 1.05.63 1.65 1.65 1.65h5.18c1.04 0 1.65-.63 1.65-1.65V2.31c0-1.05-.63-1.65-1.65-1.65h-5.18V.61ZM36.67 2.55v41.34c0 2.21 1.38 3.11 3.38 2.21l2.62-1.17c1.65-.75 2.41-1.87 2.41-3.67V5.18c0-1.8-.75-2.89-2.41-3.67L40.05.34c-.51-.24-1-.34-1.41-.34-1.21 0-1.97.92-1.97 2.55Z" fill="#F50234"/></g><defs><clipPath id="a"><path fill="#fff" d="M0 0h274.54v59.66H0z"/></clipPath></defs></svg>