<svg xmlns="http://www.w3.org/2000/svg" width="32" height="32" viewBox="0 0 32 32" fill="none"><path d="M24 0H8a8 8 0 0 0-8 8v16a8 8 0 0 0 8 8h16a8 8 0 0 0 8-8V8a8 8 0 0 0-8-8Z" fill="#F50234"/><path d="M5.546 16.739c-.678 0-1.443-.234-2.214-.678a.26.26 0 0 1-.096-.356l.29-.585a.263.263 0 0 1 .228-.131c.048 0 .096.012.134.038.634.406 1.12.554 1.626.554.88 0 1.408-.538 1.408-1.348-.275.247-.602.531-1.2.531-1.366 0-2.477-1.135-2.477-2.527 0-1.393 1.11-2.528 2.477-2.528.426 0 .749.134 1.258.537.012-.131-.055-.454.137-.454h.823a.26.26 0 0 1 .259.259v3.101c.006 1.443-.157 2.269-.771 2.896-.452.454-1.188.69-1.882.69Zm.176-5.811c-.662 0-1.2.585-1.2 1.308 0 .72.538 1.31 1.2 1.31.646 0 1.184-.573 1.2-1.277V12.2c-.016-.7-.554-1.273-1.2-1.273Zm13.226 3.836c-.359 0-.82-.16-1.245-.544 0 .202.045.464-.215.464h-.755a.26.26 0 0 1-.259-.259V8.022a.26.26 0 0 1 .26-.26h.754a.26.26 0 0 1 .26.26v2.208a1.702 1.702 0 0 1 1.2-.525c1.366 0 2.476 1.136 2.476 2.528 0 1.392-1.11 2.531-2.476 2.531Zm0-3.836c-.663 0-1.2.585-1.2 1.308 0 .72.537 1.31 1.2 1.31.662 0 1.2-.586 1.2-1.31 0-.72-.538-1.309-1.2-1.309Zm-5.594 6.368c-.359 0-.82.16-1.245.544 0-.202.045-.464-.214-.464h-.759a.26.26 0 0 0-.259.26v6.402c0 .144.118.26.26.26h.754a.26.26 0 0 0 .26-.26V21.83a1.7 1.7 0 0 0 1.2.525c1.366 0 2.476-1.136 2.476-2.528.007-1.395-1.107-2.531-2.473-2.531Zm0 3.837c-.663 0-1.2-.586-1.2-1.31 0-.722.537-1.308 1.2-1.308.662 0 1.2.586 1.2 1.309s-.538 1.309-1.2 1.309Zm11.088-6.369a2.534 2.534 0 0 1-2.531-2.527 2.534 2.534 0 0 1 2.53-2.528 2.534 2.534 0 0 1 2.532 2.527 2.534 2.534 0 0 1-2.531 2.528Zm0-3.83c-.691 0-1.255.586-1.255 1.303 0 .716.564 1.302 1.255 1.302s1.254-.586 1.254-1.303c0-.716-.563-1.302-1.254-1.302Zm-11.094 3.83a2.534 2.534 0 0 1-2.532-2.527 2.534 2.534 0 0 1 2.532-2.528 2.534 2.534 0 0 1 2.53 2.527 2.532 2.532 0 0 1-2.53 2.528Zm0-3.83c-.692 0-1.255.586-1.255 1.303 0 .716.563 1.302 1.255 1.302.69 0 1.254-.586 1.254-1.303.003-.716-.56-1.302-1.254-1.302Zm3.379 11.341a.26.26 0 0 1-.26-.26v-6.403a.26.26 0 0 1 .26-.259h.755a.26.26 0 0 1 .26.26v6.402a.26.26 0 0 1-.26.26h-.755Zm8.387 2.045c-.66-.004-1.133-.199-1.357-.378a.258.258 0 0 1-.06-.336l.358-.615a.258.258 0 0 1 .227-.128c.055 0 .109.02.154.052.054.041.253.201.505.208.176 0 .618-.167.89-.832l-1.898-4.55a.262.262 0 0 1 .24-.365l.823.003c.102 0 .198.06.237.156l1.206 2.922 1.05-2.912a.263.263 0 0 1 .246-.17h.803c.087 0 .166.045.215.116.047.07.076.17.028.358L27.105 22.3c-.442 1.085-1.213 2.023-1.99 2.02Zm-4.291-7.025c.358 0 .822.164 1.248.544 0-.201-.045-.464.214-.464h.755c.144 0 .263.119.263.263v4.416c0 .144-.119.22-.263.22h-.755c-.144 0-.262-.076-.262-.22v-.221c-.413.413-.877.525-1.2.525-1.367 0-2.48-1.136-2.48-2.531 0-1.396 1.113-2.532 2.48-2.532Zm0 3.84c.662 0 1.2-.585 1.2-1.308 0-.72-.538-1.31-1.2-1.31-.663 0-1.2.586-1.2 1.31-.003.723.537 1.308 1.2 1.308ZM9.258 14.764c-.157 0-.323-.111-.323-.425V8.105c0-.397.243-.425.316-.425.055 0 .112.012.176.038l.47.208c.228.106.334.288.334.573v5.437c0 .281-.106.464-.327.572l-.473.221a.57.57 0 0 1-.173.036Z" fill="#E7E7E7"/></svg>