<svg xmlns="http://www.w3.org/2000/svg" width="238" height="50" viewBox="0 0 238 50" fill="none"><g clip-path="url(#a)"><g clip-path="url(#b)"><path d="M164.688 47.842h-2.789a.135.135 0 0 0-.123.08l-.767 1.802a.132.132 0 0 1-.122.08h-.565a.132.132 0 0 1-.121-.185l3.001-6.835a.133.133 0 0 1 .243 0l2.924 6.835a.133.133 0 0 1-.123.184h-.567a.13.13 0 0 1-.122-.081l-.748-1.8a.13.13 0 0 0-.122-.081h.001Zm-.291-.915-.971-2.317a.132.132 0 0 0-.243 0l-.989 2.317a.133.133 0 0 0 .122.184h1.961a.133.133 0 0 0 .123-.183l-.003-.001Zm3.032 2.745v-6.795c0-.12.145-.178.228-.092l4.974 5.213a.132.132 0 0 0 .227-.091V42.97c0-.072.06-.132.133-.132h.508c.072 0 .132.06.132.132v6.816c0 .12-.145.178-.228.091l-4.974-5.213a.132.132 0 0 0-.228.092v4.915c0 .073-.06.133-.132.133h-.508a.133.133 0 0 1-.132-.133Zm7.623-3.345c0-2.078 1.619-3.603 3.623-3.603 2.005 0 3.624 1.525 3.624 3.603 0 2.079-1.608 3.604-3.624 3.604s-3.623-1.535-3.623-3.604Zm.793 0c0 1.598 1.264 2.872 2.829 2.872 1.566 0 2.829-1.274 2.829-2.872 0-1.597-1.263-2.871-2.829-2.871-1.565 0-2.829 1.274-2.829 2.871Zm11.104-2.187a.132.132 0 0 1-.186-.043 1.623 1.623 0 0 0-.34-.402c-.136-.104-.387-.24-.783-.24-.689 0-1.169.427-1.169 1.075a.73.73 0 0 0 .261.606c.208.209.469.323.73.439l.668.293c.666.29 1.249.608 1.519 1.365l.008.027c.296 1.573-.734 2.67-2.153 2.67-.459 0-1.033-.094-1.514-.563-.311-.302-.512-.722-.616-1.108a.131.131 0 0 1 .093-.159l.488-.136a.13.13 0 0 1 .163.097c.07.308.219.57.394.752.302.303.647.387 1.002.387.951 0 1.399-.678 1.399-1.379 0-.313-.094-.585-.345-.814-.198-.188-.469-.313-.835-.48l-.626-.293c-.271-.126-.616-.27-.929-.574-.303-.292-.48-.616-.48-1.138 0-1.075.825-1.795 1.953-1.795.427 0 .772.084 1.117.313.247.164.461.4.616.66a.133.133 0 0 1-.039.181l-.395.26-.001-.002Zm4.611-1.169c0-.073.06-.132.132-.132h1.288c.7 0 1.692.072 2.569.814.636.532 1.19 1.42 1.19 2.673 0 1.462-.721 2.245-1.222 2.673-.636.543-1.306.804-2.548.804h-1.278a.132.132 0 0 1-.132-.132V42.97l.001.001Zm.772 5.97c0 .073.06.133.133.133h.546c.553 0 1.316-.063 1.994-.626.522-.44.94-1.128.94-2.12 0-1.672-1.17-2.758-2.935-2.758h-.546a.133.133 0 0 0-.133.133v5.238h.001Zm9.308-5.371h-2.576a.133.133 0 0 0-.132.133v1.803c0 .073.06.133.132.133h2.492c.073 0 .133.06.133.132v.466c0 .072-.06.132-.133.132h-2.492a.133.133 0 0 0-.132.133v2.44c0 .072.06.132.132.132h2.576c.073 0 .133.06.133.132v.466c0 .073-.06.133-.133.133h-3.348a.133.133 0 0 1-.133-.133v-6.701c0-.073.06-.132.133-.132h3.348c.073 0 .133.06.133.132v.466c0 .072-.06.132-.133.132v.002Zm7.577 2.868c0-.073.059-.132.132-.132h2.771v.166c0 .773-.229 1.608-.668 2.204-.209.28-.992 1.252-2.591 1.252-2.068 0-3.613-1.577-3.613-3.603 0-2.027 1.557-3.603 3.634-3.603.668 0 1.451.166 2.13.688.277.211.535.48.73.726a.133.133 0 0 1-.014.18l-.376.341a.132.132 0 0 1-.196-.02 3.617 3.617 0 0 0-.571-.602c-.335-.271-.857-.585-1.692-.585-1.681 0-2.851 1.263-2.851 2.882 0 1.9 1.515 2.862 2.83 2.862.929 0 1.733-.47 2.13-1.17.111-.194.229-.477.27-.843a.134.134 0 0 0-.131-.15h-1.792a.132.132 0 0 1-.132-.132v-.466.005Zm5.096-3.467v5.97c0 .072.059.132.132.132h1.657c.073 0 .132.06.132.132v.466a.132.132 0 0 1-.132.132h-2.43a.133.133 0 0 1-.132-.132V42.97c0-.073.06-.133.132-.133h.508c.073 0 .133.06.133.133v.001Zm2.234 3.356c0-2.078 1.619-3.603 3.623-3.603 2.005 0 3.624 1.525 3.624 3.603 0 2.079-1.609 3.604-3.624 3.604-2.014 0-3.623-1.535-3.623-3.604Zm.794 0c0 1.598 1.264 2.872 2.829 2.872 1.566 0 2.83-1.274 2.83-2.872 0-1.597-1.264-2.871-2.83-2.871-1.565 0-2.829 1.274-2.829 2.871Zm9.125-3.488c.387 0 1.086.031 1.597.439.219.166.626.595.626 1.44 0 .306-.057.818-.5 1.22a.133.133 0 0 0 .041.22c.798.308 1.096 1.07 1.096 1.683a1.93 1.93 0 0 1-.71 1.504c-.554.44-1.19.46-1.672.46h-1.601a.133.133 0 0 1-.132-.133v-6.701c0-.073.06-.132.132-.132h1.123Zm-.48 2.927c0 .073.06.132.132.132h.452c.408 0 1.368-.084 1.368-1.16 0-1.147-1.127-1.169-1.346-1.169h-.474a.133.133 0 0 0-.132.133v2.064Zm0 3.175c0 .073.06.133.132.133h.755c.449 0 .887-.032 1.222-.293.271-.198.459-.543.459-.96 0-.554-.323-.878-.595-1.024-.261-.146-.626-.209-1.18-.209h-.662a.133.133 0 0 0-.132.133v2.22h.001Zm4.385-2.614c0-2.078 1.619-3.603 3.624-3.603 2.004 0 3.623 1.525 3.623 3.603 0 2.079-1.607 3.604-3.623 3.604s-3.624-1.535-3.624-3.604Zm.794 0c0 1.598 1.264 2.872 2.83 2.872 1.565 0 2.829-1.274 2.829-2.872 0-1.597-1.264-2.871-2.829-2.871-1.566 0-2.83 1.274-2.83 2.871Zm6.218-26.301-6.641-.544 6.67-.223a.21.21 0 0 0 .206-.213l-.034-.964a.21.21 0 0 0-.22-.2l-7.524.25a.21.21 0 0 0-.206.215l.035.963a.2.2 0 0 0 .081.154.206.206 0 0 0-.071.136l-.096 1.098c-.002.03.003.06.012.086a.31.31 0 0 0-.013.038l-.257 1.213a.22.22 0 0 0-.003.058l-.417 1.221-.009.039-.359.743a.224.224 0 0 0-.079.072l-.435.704-.024-.011a10.86 10.86 0 0 1-1.679 2.083c-2.092 2.032-4.876 3.152-7.839 3.155-6.117.01-11.102-4.793-11.114-10.709v-.768c-.009-4.41 2.748-8.21 6.684-9.864a11.358 11.358 0 0 1 4.389-.885h.019V.075h-.033c-5.111.008-9.917 1.947-13.533 5.458-3.619 3.509-5.605 8.163-5.595 13.105l.002.769c.009 4.942 2.013 9.589 5.643 13.087 3.63 3.497 8.442 5.419 13.553 5.411a19.62 19.62 0 0 0 7.58-1.526 19.146 19.146 0 0 0 8.303-6.7.222.222 0 0 0 .037-.041l.065-.105c.299-.44.58-.893.841-1.36l.014-.022.032-.059s.136-.215.181-.306l.662-1.372a.206.206 0 0 0-.103-.275l-3.363-1.379 3.366 1.074a.216.216 0 0 0 .27-.13l.447-1.308a.205.205 0 0 0-.136-.26l-3.521-1.124 3.64.722a.214.214 0 0 0 .252-.16l.257-1.213a.205.205 0 0 0-.166-.243l-5.051-1.002 5.147.422a.211.211 0 0 0 .231-.189l.095-1.097a.208.208 0 0 0-.194-.223l.001-.003Z" fill="#2D85FB"/><path d="m229.446 17.102.128.816c.018.113.128.19.243.173l7.469-1.102a.207.207 0 0 0 .178-.236l-.128-.816a.214.214 0 0 0-.243-.173l-7.469 1.103a.208.208 0 0 0-.179.235h.001Zm-.341-1.266.224.796c.031.11.149.175.262.145l7.317-1.925a.207.207 0 0 0 .151-.254l-.224-.796a.216.216 0 0 0-.263-.145l-7.317 1.925a.207.207 0 0 0-.15.254Zm-.456-1.148.262.64a.216.216 0 0 0 .277.116l7.076-2.711a.204.204 0 0 0 .119-.269l-.262-.64a.216.216 0 0 0-.277-.116l-7.076 2.711a.205.205 0 0 0-.119.269Zm-.575-1.092.266.486a.22.22 0 0 0 .289.086l6.751-3.454a.203.203 0 0 0 .089-.279l-.266-.486a.219.219 0 0 0-.289-.086l-6.75 3.454a.204.204 0 0 0-.09.279Zm-.723-1.082.32.455c.066.095.198.12.296.056l6.35-4.151a.2.2 0 0 0 .057-.287l-.319-.455a.22.22 0 0 0-.297-.056l-6.349 4.151a.202.202 0 0 0-.058.287Zm-.789-.944.275.316a.22.22 0 0 0 .301.024l5.876-4.8a.202.202 0 0 0 .025-.292l-.275-.316a.218.218 0 0 0-.3-.024l-5.876 4.801a.202.202 0 0 0-.026.292Zm-.878-.855.206.19c.085.079.22.075.301-.006l5.331-5.402a.202.202 0 0 0-.008-.291l-.206-.19a.22.22 0 0 0-.302.006l-5.33 5.402a.2.2 0 0 0 .008.291Zm-.955-.758.113.084a.219.219 0 0 0 .299-.038l4.711-5.95a.202.202 0 0 0-.04-.288l-.113-.084a.219.219 0 0 0-.299.038l-4.711 5.949a.202.202 0 0 0 .04.289Zm-1.081-.687.122.07a.218.218 0 0 0 .293-.07l4.017-6.438a.203.203 0 0 0-.073-.284l-.122-.071a.218.218 0 0 0-.293.07l-4.016 6.439a.204.204 0 0 0 .072.283Zm-1.076-.531a.215.215 0 0 0 .282-.102l3.248-6.862a.202.202 0 0 0-.105-.273.216.216 0 0 0-.283.102l-3.248 6.861a.202.202 0 0 0 .106.274Zm-1.188-.433a.142.142 0 0 0 .179-.088l2.449-7.247a.136.136 0 0 0-.092-.173.142.142 0 0 0-.179.088l-2.449 7.247a.136.136 0 0 0 .092.173Zm-1.447-.34a.145.145 0 0 0 .165-.113l.11-.644L221.393.33a.09.09 0 0 0 0-.043.138.138 0 0 0-.117-.115.144.144 0 0 0-.164.113l-1.182 6.888-.11.634a.139.139 0 0 0 .116.158h.001ZM207.34 18.31l-.046-.768c-.607-10.2-9.681-18.022-20.23-17.436-10.549.586-18.636 9.362-18.03 19.563l.046.768c.606 10.2 9.68 18.022 20.23 17.437 10.549-.587 18.637-9.363 18.03-19.564Zm-30.206 1.68-.046-.767c-.351-5.906 4.331-10.987 10.439-11.327 6.107-.34 11.361 4.19 11.712 10.096l.046.767c.176 2.953-.908 5.7-2.798 7.75-1.89 2.052-4.587 3.406-7.64 3.576-6.108.34-11.361-4.188-11.712-10.094l-.001-.001Z" fill="#2D85FB"/><path d="m199.304 19.68-.002-.167c0 .056-.002.112-.004.168-.074 2.599-1.118 4.99-2.81 6.827-1.889 2.052-4.586 3.406-7.641 3.576-6.107.34-11.361-4.188-11.712-10.094l-.029-.491h-8.08l.009.172.046.767c.606 10.201 9.681 18.022 20.229 17.437 5.737-.32 10.746-3.061 14.024-7.137-2.55-3.159-3.962-7.002-4.03-11.057Z" fill="url(#c)"/><path d="M218.427.084c-5.111.007-9.918 1.947-13.534 5.457a18.916 18.916 0 0 0-1.582 1.735c2.295 2.859 3.752 6.395 3.983 10.274l.045.767c.016.263.026.522.03.782v-.467c-.01-4.408 2.746-8.208 6.683-9.863a11.328 11.328 0 0 1 4.39-.884h.019V.084h-.034Zm-19.128 19.332v.148c0-.125 0-.249-.002-.375v.226h.002Z" fill="url(#d)"/><path d="m207.34 18.31-.046-.768c-.607-10.2-9.681-18.022-20.23-17.436-10.549.586-18.636 9.362-18.03 19.563l.046.768c.606 10.2 9.68 18.022 20.23 17.437 10.549-.587 18.637-9.363 18.03-19.564Zm-30.206 1.68-.046-.767c-.351-5.906 4.331-10.987 10.439-11.327 6.107-.34 11.361 4.19 11.712 10.096l.046.767c.176 2.953-.908 5.7-2.798 7.75-1.89 2.052-4.587 3.406-7.64 3.576-6.108.34-11.361-4.188-11.712-10.094l-.001-.001Z" fill="url(#e)"/><path d="M172.123 15.627v21.729a.549.549 0 0 1-.549.548h-6.79a.549.549 0 0 1-.549-.548v-21.73c0-3.269-1.453-6.204-3.751-8.192a.867.867 0 0 1-.21-1.03l2.87-6.012a.556.556 0 0 1 .814-.22c4.927 3.376 8.166 9.045 8.166 15.455h-.001Z" fill="#2D85FB"/></g><path d="M140.777 49.26a.517.517 0 0 1-.516-.517V.967a.517.517 0 1 1 1.032 0v47.779c0 .284-.23.517-.516.517v-.003Z" fill="#2D85FB"/><g clip-path="url(#f)"><path d="M18.657 12.475c-.827-.386-1.418 0-1.418.922v17.281c0 .922.561 1.309 1.418.922l1.093-.476c.68-.327 1.005-.773 1.005-1.517v-15.11c0-.743-.325-1.219-1.005-1.516l-1.093-.506Zm26 5.384c-1.388 0-2.717.595-3.604 1.517v-6.098c0-.446-.266-.684-.68-.684h-2.127c-.443 0-.68.268-.68.684v17.519c0 .446.267.684.68.684h1.92c.444 0 .68-.268.68-.684v-.744c.828.952 2.364 1.666 3.9 1.666 3.34 0 6.235-3.064 6.235-6.93 0-3.926-2.925-6.93-6.323-6.93Zm-31.82.238c-.444 0-.68.267-.68.684v.743c-.768-.951-2.216-1.665-3.634-1.665-3.487 0-6.5 3.004-6.5 6.93 0 3.926 2.836 6.633 6.411 6.633 1.596 0 2.837-.744 3.546-1.517-.03 2.736-1.448 3.985-3.93 3.985-1.3-.03-2.541-.416-3.96-1.338-.383-.268-.797-.179-1.004.238l-.857 1.695c-.207.387-.147.773.266 1.041 1.773 1.16 3.87 1.725 5.673 1.725 4.728 0 7.328-2.558 7.328-8.476V18.78c0-.446-.266-.684-.68-.684h-1.98Zm16.309-.238c-3.693 0-6.796 2.915-6.796 6.93s3.044 6.93 6.796 6.93c3.693 0 6.796-2.915 6.796-6.93s-3.044-6.93-6.796-6.93Zm30.048 0c-3.693 0-6.795 2.915-6.795 6.93s3.043 6.93 6.795 6.93c3.694 0 6.796-2.915 6.796-6.93s-3.043-6.93-6.795-6.93Zm21.924 8.714c-.384 0-.591.179-.798.506-.502.892-1.359 1.25-2.393 1.25-1.802 0-3.191-1.518-3.191-3.54 0-2.052 1.418-3.54 3.19-3.54 1.005 0 1.774.417 2.276 1.19.207.357.473.506.827.506h2.305c.473 0 .739-.298.59-.773-.767-2.529-3.25-4.284-6.056-4.284-3.605 0-6.589 2.915-6.589 6.93 0 4.016 2.866 6.93 6.589 6.93 2.866 0 5.377-1.724 6.116-4.371.118-.476-.177-.744-.62-.744h-2.246v-.06ZM91.99 17.86c-3.693 0-6.796 2.915-6.796 6.93s3.044 6.93 6.796 6.93c3.693 0 6.796-2.915 6.796-6.93s-3.044-6.93-6.796-6.93Zm22.485 0a4.82 4.82 0 0 0-3.871 1.903c-.739-1.1-1.98-1.903-3.545-1.903-1.537 0-2.63.684-3.339 1.606v-.684c0-.446-.266-.684-.68-.684h-1.92c-.443 0-.68.267-.68.684v11.986c0 .446.266.684.68.684h2.127c.443 0 .68-.267.68-.684v-6.573c0-1.874.916-3.004 2.363-3.004 1.419 0 2.187.982 2.187 2.885v6.692c0 .446.266.684.679.684h2.128c.443 0 .679-.267.679-.684v-6.573c0-1.874.916-3.004 2.364-3.004s2.186.982 2.186 2.885v6.692c0 .446.266.684.68.684h2.127c.443 0 .68-.267.68-.684V23.66c-.059-3.54-2.098-5.8-5.525-5.8ZM8.759 28.299c-1.802 0-3.31-1.428-3.31-3.54 0-2.141 1.508-3.54 3.31-3.54s3.31 1.428 3.31 3.54c-.03 2.112-1.508 3.54-3.31 3.54Zm20.387.03c-1.832 0-3.31-1.488-3.31-3.54s1.478-3.54 3.31-3.54 3.31 1.488 3.31 3.54c.029 2.052-1.478 3.54-3.31 3.54Zm15.098 0c-1.773 0-3.28-1.428-3.28-3.54s1.478-3.54 3.28-3.54c1.773 0 3.28 1.428 3.28 3.54 0 2.141-1.507 3.54-3.28 3.54Zm14.95 0c-1.831 0-3.309-1.488-3.309-3.54s1.478-3.54 3.31-3.54c1.831 0 3.309 1.488 3.309 3.54.03 2.052-1.478 3.54-3.31 3.54Zm32.797 0c-1.832 0-3.31-1.488-3.31-3.54s1.478-3.54 3.31-3.54 3.31 1.488 3.31 3.54c.029 2.052-1.449 3.54-3.31 3.54Zm-23.371-1.22c-1.182 0-2.275.922-2.275 2.29a2.27 2.27 0 0 0 2.275 2.32c1.182 0 2.275-.922 2.275-2.29a2.27 2.27 0 0 0-2.275-2.32Z" fill="url(#g)"/></g></g><defs><linearGradient id="c" x1="199.757" y1="17.676" x2="185.313" y2="26.323" gradientUnits="userSpaceOnUse"><stop stop-color="#0B23F5"/><stop offset="1" stop-color="#0B23F5" stop-opacity="0"/></linearGradient><linearGradient id="d" x1="203.15" y1="13.867" x2="215.044" y2="6.59" gradientUnits="userSpaceOnUse"><stop stop-color="#0B23F5"/><stop offset="1" stop-color="#0B23F5" stop-opacity="0"/></linearGradient><linearGradient id="e" x1="168.604" y1="18.782" x2="185.992" y2="18.967" gradientUnits="userSpaceOnUse"><stop stop-color="#0B23F5"/><stop offset="1" stop-color="#0B23F5" stop-opacity="0"/></linearGradient><linearGradient id="g" x1="22.311" y1="24.789" x2="116.718" y2="50.352" gradientUnits="userSpaceOnUse"><stop stop-color="#0420FC"/><stop offset="1" stop-color="#03B4FC"/></linearGradient><clipPath id="a"><path fill="#fff" transform="translate(.501 .075)" d="M0 0h236.999v49.85H0z"/></clipPath><clipPath id="b"><path fill="#fff" transform="translate(160.189 .075)" d="M0 0h77.429v49.854H0z"/></clipPath><clipPath id="f"><path fill="#fff" transform="translate(2.022 12.326)" d="M0 0h117.978v24.925H0z"/></clipPath></defs></svg>