<svg xmlns="http://www.w3.org/2000/svg" width="109" height="36" viewBox="0 0 109 36" fill="none"><g clip-path="url(#a)"><g clip-path="url(#b)"><path d="M0 14.873c0-3.283 0-4.925.639-6.18a5.863 5.863 0 0 1 2.562-2.561c1.254-.64 2.896-.64 6.18-.64h6.253c3.284 0 4.925 0 6.18.64 1.103.562 2 1.459 2.562 2.562.639 1.254.639 2.896.639 6.18v6.253c0 3.283 0 4.925-.64 6.18a5.863 5.863 0 0 1-2.561 2.562c-1.255.639-2.896.639-6.18.639H9.381c-3.284 0-4.926 0-6.18-.64A5.863 5.863 0 0 1 .64 27.306C0 26.052 0 24.41 0 21.126v-6.253Z" fill="url(#c)"/><path fill-rule="evenodd" clip-rule="evenodd" d="M7.523 15.99c0 2.847 2.1 4.815 4.751 4.815 1.187 0 2.1-.544 2.63-1.11-.022 1.99-1.082 2.89-2.906 2.89-.975 0-1.887-.293-2.948-.963-.276-.188-.594-.126-.742.168l-.636 1.235c-.149.292-.106.565.19.754 1.315.838 2.864 1.257 4.199 1.257 3.5 0 5.43-1.864 5.43-6.157v-7.244c0-.314-.191-.502-.51-.502h-1.44c-.319 0-.51.188-.51.502v.545c-.572-.692-1.632-1.215-2.693-1.215-2.587 0-4.815 2.177-4.815 5.025Zm2.524-.022c0-1.549 1.124-2.576 2.46-2.576 1.336 0 2.44 1.026 2.44 2.576 0 1.53-1.104 2.575-2.44 2.575-1.335.002-2.46-1.046-2.46-2.575Z" fill="#fff"/></g><path d="M38.81 35.622a.373.373 0 0 1-.373-.373V.749a.373.373 0 1 1 .746 0V35.25a.373.373 0 0 1-.373.374v-.002Z" fill="#2D85FB"/><g clip-path="url(#d)"><path d="M55.854 34.493H53.84a.097.097 0 0 0-.089.058l-.554 1.301a.096.096 0 0 1-.088.058h-.408a.096.096 0 0 1-.087-.134l2.167-4.936a.096.096 0 0 1 .175 0l2.111 4.936a.096.096 0 0 1-.088.133h-.41a.095.095 0 0 1-.088-.059l-.54-1.3a.095.095 0 0 0-.088-.058h.001Zm-.21-.661-.701-1.673a.095.095 0 0 0-.176 0l-.714 1.673a.096.096 0 0 0 .088.133h1.416c.068 0 .115-.07.089-.132l-.002-.001Zm2.189 1.982v-4.907c0-.086.105-.128.165-.066l3.591 3.765c.06.062.165.02.165-.066v-3.564c0-.053.043-.096.095-.096h.367c.052 0 .096.043.096.096v4.921a.095.095 0 0 1-.165.066L58.555 32.2a.095.095 0 0 0-.164.066v3.55a.096.096 0 0 1-.096.095h-.366a.096.096 0 0 1-.096-.096Zm5.504-2.414c0-1.502 1.169-2.603 2.617-2.603 1.447 0 2.616 1.101 2.616 2.602s-1.16 2.602-2.616 2.602c-1.456 0-2.617-1.108-2.617-2.602Zm.572 0c0 1.153.913 2.073 2.044 2.073 1.13 0 2.043-.92 2.043-2.074a2.052 2.052 0 0 0-2.043-2.073c-1.13 0-2.044.92-2.044 2.073Zm8.019-1.58a.095.095 0 0 1-.135-.031 1.176 1.176 0 0 0-.245-.29.906.906 0 0 0-.565-.174c-.498 0-.845.309-.845.776 0 .196.053.31.189.438.15.15.339.233.527.317l.483.211c.48.21.901.44 1.096.986l.006.02c.214 1.136-.53 1.928-1.554 1.928-.332 0-.747-.068-1.094-.407a1.777 1.777 0 0 1-.445-.8.095.095 0 0 1 .067-.115l.353-.098a.094.094 0 0 1 .118.07c.05.222.158.412.284.543.218.219.467.28.724.28.687 0 1.01-.49 1.01-.996a.75.75 0 0 0-.25-.588c-.142-.136-.338-.226-.602-.347l-.452-.211c-.196-.091-.445-.196-.671-.415a1.044 1.044 0 0 1-.347-.821c0-.777.596-1.297 1.41-1.297.31 0 .558.06.807.226.178.119.333.29.445.477a.096.096 0 0 1-.029.13l-.284.19-.001-.003Zm3.33-.844c0-.053.043-.096.095-.096h.93c.506 0 1.222.052 1.855.588.46.384.86 1.026.86 1.93 0 1.056-.52 1.621-.883 1.93-.46.393-.943.581-1.84.581h-.923a.096.096 0 0 1-.095-.096v-4.839.002Zm.558 4.31c0 .053.043.096.095.096h.394c.4 0 .95-.045 1.44-.452.377-.317.679-.814.679-1.53 0-1.208-.845-1.992-2.12-1.992h-.394a.096.096 0 0 0-.095.096v3.783Zm6.721-3.878h-1.86a.096.096 0 0 0-.096.096v1.302c0 .053.043.096.096.096h1.8c.052 0 .095.043.095.095v.337a.096.096 0 0 1-.096.095h-1.8a.096.096 0 0 0-.095.096v1.762c0 .052.043.095.096.095h1.86c.052 0 .096.044.096.096v.336a.096.096 0 0 1-.096.096H80.12a.096.096 0 0 1-.096-.096v-4.838c0-.053.044-.096.096-.096h2.418c.052 0 .096.043.096.096v.336a.096.096 0 0 1-.096.095v.001Zm5.471 2.072c0-.053.043-.096.096-.096h2v.12c0 .558-.165 1.16-.482 1.59-.15.204-.716.905-1.87.905-1.494 0-2.61-1.139-2.61-2.602 0-1.463 1.125-2.602 2.624-2.602.483 0 1.048.12 1.539.498.2.152.386.346.527.524a.096.096 0 0 1-.01.13l-.272.246a.095.095 0 0 1-.141-.014 2.598 2.598 0 0 0-.413-.435 1.849 1.849 0 0 0-1.221-.423c-1.214 0-2.059.913-2.059 2.082 0 1.372 1.094 2.066 2.043 2.066.671 0 1.252-.34 1.539-.845.08-.14.165-.344.195-.608a.097.097 0 0 0-.095-.109h-1.294a.096.096 0 0 1-.096-.095v-.337.004Zm3.68-2.504v4.31c0 .053.043.096.095.096h1.197c.052 0 .096.043.096.095v.337a.096.096 0 0 1-.096.095h-1.755a.096.096 0 0 1-.095-.095v-4.84c0-.052.043-.095.096-.095h.366c.053 0 .096.043.096.096ZM93.3 33.4c0-1.502 1.17-2.603 2.617-2.603 1.448 0 2.617 1.101 2.617 2.602s-1.162 2.602-2.617 2.602c-1.454 0-2.616-1.108-2.616-2.602Zm.574 0c0 1.153.913 2.073 2.043 2.073 1.13 0 2.043-.92 2.043-2.074a2.052 2.052 0 0 0-2.043-2.073c-1.13 0-2.043.92-2.043 2.073Zm6.59-2.52c.279 0 .784.023 1.153.317.158.12.452.43.452 1.04 0 .22-.041.59-.361.88a.096.096 0 0 0 .03.16c.576.222.791.772.791 1.215 0 .482-.242.875-.513 1.086-.4.317-.859.332-1.207.332h-1.156a.096.096 0 0 1-.095-.096v-4.838c0-.053.043-.096.095-.096h.811Zm-.347 2.114c0 .052.044.095.096.095h.326c.294 0 .988-.06.988-.837 0-.829-.814-.845-.972-.845h-.342a.097.097 0 0 0-.096.096v1.49Zm0 2.293c0 .052.044.095.096.095h.545c.324 0 .641-.023.882-.211a.849.849 0 0 0 .332-.694c0-.4-.233-.633-.43-.739-.189-.105-.452-.15-.852-.15h-.478a.097.097 0 0 0-.096.095v1.604h.001Zm3.167-1.887c0-1.502 1.169-2.603 2.617-2.603 1.447 0 2.616 1.101 2.616 2.602s-1.16 2.602-2.616 2.602c-1.456 0-2.617-1.108-2.617-2.602Zm.574 0c0 1.153.912 2.073 2.043 2.073 1.13 0 2.043-.92 2.043-2.074a2.052 2.052 0 0 0-2.043-2.073c-1.131 0-2.043.92-2.043 2.073Zm4.489-18.994-4.796-.392 4.817-.16a.15.15 0 0 0 .149-.155l-.025-.696a.151.151 0 0 0-.159-.144l-5.432.18a.15.15 0 0 0-.149.155l.025.696a.143.143 0 0 0 .058.111.15.15 0 0 0-.051.099l-.069.792a.161.161 0 0 0 .008.062.503.503 0 0 0-.009.028l-.186.876a.191.191 0 0 0-.001.041l-.302.882-.006.028-.259.537a.143.143 0 0 0-.057.052l-.315.508-.017-.008a7.848 7.848 0 0 1-1.212 1.505c-1.511 1.466-3.521 2.275-5.661 2.278-4.417.007-8.017-3.461-8.025-7.733v-.555c-.007-3.184 1.984-5.928 4.826-7.123a8.211 8.211 0 0 1 3.17-.639h.013V0h-.024c-3.69.006-7.161 1.406-9.772 3.941-2.613 2.534-4.048 5.895-4.04 9.464l.002.555c.006 3.569 1.453 6.924 4.074 9.45 2.621 2.525 6.096 3.913 9.787 3.907a14.163 14.163 0 0 0 5.473-1.101 13.82 13.82 0 0 0 5.996-4.838l.027-.03.047-.076c.216-.318.419-.645.607-.982l.01-.016.023-.043s.099-.155.131-.221l.478-.99a.149.149 0 0 0-.075-.2l-2.428-.995 2.431.776a.156.156 0 0 0 .195-.095l.322-.944a.148.148 0 0 0-.098-.188l-2.542-.811 2.628.522a.154.154 0 0 0 .182-.116l.186-.876a.148.148 0 0 0-.12-.176l-3.647-.723 3.717.304a.152.152 0 0 0 .166-.136l.069-.792a.15.15 0 0 0-.141-.16l.001-.004Z" fill="#2D85FB"/><path d="m102.616 12.295.093.59a.153.153 0 0 0 .175.125l5.393-.796a.15.15 0 0 0 .129-.17l-.093-.59a.154.154 0 0 0-.175-.125l-5.394.796a.15.15 0 0 0-.129.17h.001Zm-.246-.914.161.575c.022.08.108.126.19.105l5.283-1.39a.15.15 0 0 0 .109-.183l-.162-.576a.155.155 0 0 0-.189-.104l-5.284 1.39a.15.15 0 0 0-.108.183Zm-.33-.829.189.462a.158.158 0 0 0 .201.084l5.109-1.958a.147.147 0 0 0 .086-.194l-.189-.462a.156.156 0 0 0-.2-.084l-5.109 1.958a.148.148 0 0 0-.087.194Zm-.415-.788.192.35c.04.073.134.1.209.063l4.875-2.494a.146.146 0 0 0 .064-.202l-.192-.35a.159.159 0 0 0-.209-.063l-4.874 2.494a.147.147 0 0 0-.065.202Zm-.522-.782.23.33a.159.159 0 0 0 .215.04l4.585-2.998a.145.145 0 0 0 .041-.207l-.231-.33a.158.158 0 0 0-.214-.04l-4.585 2.998a.145.145 0 0 0-.041.207Zm-.57-.681.198.228c.055.062.153.07.217.017l4.243-3.466a.145.145 0 0 0 .019-.21l-.199-.229a.158.158 0 0 0-.217-.017l-4.243 3.467a.145.145 0 0 0-.018.21Zm-.635-.617.149.137a.159.159 0 0 0 .218-.005l3.849-3.9a.146.146 0 0 0-.005-.211l-.149-.137a.159.159 0 0 0-.218.005l-3.849 3.9a.145.145 0 0 0 .005.21Zm-.688-.548.081.06c.068.05.165.038.216-.027l3.402-4.296a.147.147 0 0 0-.029-.209l-.082-.06a.158.158 0 0 0-.216.027l-3.401 4.296a.146.146 0 0 0 .029.209Zm-.781-.496.088.05a.157.157 0 0 0 .212-.05l2.9-4.65a.147.147 0 0 0-.052-.204l-.088-.052a.158.158 0 0 0-.212.05l-2.9 4.65a.147.147 0 0 0 .052.205Zm-.777-.384c.077.034.17.002.204-.073l2.346-4.955a.147.147 0 0 0-.077-.198.155.155 0 0 0-.204.074l-2.345 4.955a.146.146 0 0 0 .076.197Zm-.858-.312a.103.103 0 0 0 .13-.064L98.692.647a.098.098 0 0 0-.066-.125.103.103 0 0 0-.13.064l-1.768 5.233a.098.098 0 0 0 .066.125Zm-1.045-.246a.104.104 0 0 0 .119-.081l.08-.465L96.8.185a.1.1 0 0 0-.084-.114.104.104 0 0 0-.119.082l-.853 4.974-.08.457a.1.1 0 0 0 .084.114h.001Zm-9.096 7.47-.033-.554C86.182 5.247 79.629-.402 72.011.021c-7.617.424-13.457 6.76-13.02 14.127l.034.555c.437 7.366 6.99 13.014 14.608 12.59 7.618-.423 13.459-6.76 13.02-14.126ZM64.841 14.38l-.033-.554c-.254-4.265 3.127-7.934 7.538-8.18 4.41-.244 8.203 3.026 8.457 7.291l.033.554c.127 2.132-.655 4.116-2.02 5.596a8.092 8.092 0 0 1-5.517 2.583c-4.41.245-8.204-3.025-8.457-7.29h-.001Z" fill="#2D85FB"/><path d="m80.85 14.158-.002-.122c0 .04 0 .081-.002.122a7.587 7.587 0 0 1-2.03 4.93A8.087 8.087 0 0 1 73.3 21.67c-4.41.245-8.204-3.025-8.457-7.29l-.021-.354h-5.835c.001.042.004.083.007.124l.033.554c.437 7.367 6.99 13.014 14.608 12.592 4.142-.231 7.76-2.21 10.126-5.154a12.992 12.992 0 0 1-2.91-7.984Z" fill="url(#e)"/><path d="M94.658.007c-3.69.005-7.161 1.406-9.772 3.94-.41.399-.792.818-1.142 1.253a13.048 13.048 0 0 1 2.875 7.419l.033.554c.011.19.019.377.022.565V13.4c-.008-3.183 1.983-5.927 4.825-7.122a8.177 8.177 0 0 1 3.17-.638h.014V.007h-.025Zm-13.811 13.96v.106c0-.09 0-.18-.002-.27v.162l.002.001Z" fill="url(#f)"/><path d="m86.653 13.168-.033-.554C86.182 5.247 79.629-.402 72.011.021c-7.617.424-13.457 6.76-13.02 14.127l.034.555c.437 7.366 6.99 13.014 14.608 12.59 7.618-.423 13.459-6.76 13.02-14.126ZM64.841 14.38l-.033-.554c-.254-4.265 3.127-7.934 7.538-8.18 4.41-.244 8.203 3.026 8.457 7.291l.033.554c.127 2.132-.655 4.116-2.02 5.596a8.092 8.092 0 0 1-5.517 2.583c-4.41.245-8.204-3.025-8.457-7.29h-.001Z" fill="url(#g)"/><path d="M61.222 11.23v15.69a.396.396 0 0 1-.396.397h-4.903a.396.396 0 0 1-.396-.396V11.23a7.807 7.807 0 0 0-2.709-5.917.626.626 0 0 1-.151-.743L54.739.229a.4.4 0 0 1 .587-.159c3.558 2.438 5.897 6.532 5.897 11.16Z" fill="#2D85FB"/></g></g><defs><linearGradient id="c" x1="2.194" y1="7.029" x2="23.698" y2="28.533" gradientUnits="userSpaceOnUse"><stop stop-color="#0420FC"/><stop offset="1" stop-color="#03B4FC"/></linearGradient><linearGradient id="e" x1="81.177" y1="12.71" x2="70.747" y2="18.954" gradientUnits="userSpaceOnUse"><stop stop-color="#0B23F5"/><stop offset="1" stop-color="#0B23F5" stop-opacity="0"/></linearGradient><linearGradient id="f" x1="83.627" y1="9.959" x2="92.216" y2="4.705" gradientUnits="userSpaceOnUse"><stop stop-color="#0B23F5"/><stop offset="1" stop-color="#0B23F5" stop-opacity="0"/></linearGradient><linearGradient id="g" x1="58.681" y1="13.509" x2="71.237" y2="13.642" gradientUnits="userSpaceOnUse"><stop stop-color="#0B23F5"/><stop offset="1" stop-color="#0B23F5" stop-opacity="0"/></linearGradient><clipPath id="a"><path fill="#fff" d="M0 0h108.517v36H0z"/></clipPath><clipPath id="b"><rect y="5.493" width="25.015" height="25.015" rx="2.44" fill="#fff"/></clipPath><clipPath id="d"><path fill="#fff" transform="translate(52.605)" d="M0 0h55.912v36H0z"/></clipPath></defs></svg>