<svg xmlns="http://www.w3.org/2000/svg" width="32" height="32" viewBox="0 0 32 32" fill="none"><path fill-rule="evenodd" clip-rule="evenodd" d="M9.6 16c0 3.523 2.852 6.4 6.396 6.4A6.405 6.405 0 0 0 22.4 16c0-3.524-2.86-6.4-6.404-6.4A6.397 6.397 0 0 0 9.6 16Zm-9.6.004C0 24.814 7.168 32 15.997 32 24.833 32 32 24.815 32 16.004 32 7.194 24.833 0 15.997 0 7.168 0 0 7.194 0 16.004ZM15.996 24c-3.6.005-7.456-.077-10.933-.429-1.004-.1-1.544-.338-1.655-1.388-.195-1.924-.208-3.904-.208-5.916 0-2.012.013-3.992.208-5.916.111-1.05.651-1.289 1.655-1.39 3.477-.358 7.333-.434 10.933-.427 3.608-.007 7.457.069 10.934.427 1.01.101 1.55.34 1.654 1.39.202 1.924.216 3.904.216 5.916 0 2.012-.014 3.992-.216 5.916-.105 1.05-.645 1.289-1.654 1.388-3.477.352-7.326.434-10.934.429Z" fill="#009DDB"/></svg>