<svg xmlns="http://www.w3.org/2000/svg" width="21" height="20" viewBox="0 0 21 20" fill="none"><path fill-rule="evenodd" clip-rule="evenodd" d="M10.498 5.966a4.055 4.055 0 1 0 0 8.11c2.25 0 4.076-1.826 4.076-4.055a4.073 4.073 0 0 0-4.076-4.055Zm0 0a4.055 4.055 0 1 0 0 8.11c2.25 0 4.076-1.826 4.076-4.055a4.073 4.073 0 0 0-4.076-4.055Zm6.817 8.769c-2.166.233-4.565.276-6.815.276s-4.65-.043-6.816-.276c-.615-.064-.955-.213-1.04-.892-.127-1.253-.127-2.527-.127-3.822s0-2.59.127-3.822c.064-.679.403-.828 1.04-.891 2.166-.234 4.565-.276 6.816-.276 2.25 0 4.65.042 6.815.276.637.063.976.212 1.04.891.128 1.253.128 2.527.128 3.822s0 2.57-.128 3.822c-.085.658-.424.828-1.04.892ZM10.5 0C4.98 0 .5 4.501.5 10s4.48 10 10 10 10-4.501 10-10-4.48-10-10-10Zm-.002 5.966a4.055 4.055 0 1 0 0 8.11c2.25 0 4.076-1.826 4.076-4.055a4.073 4.073 0 0 0-4.076-4.055Z" fill="#9DA3AE"/></svg>