<svg xmlns="http://www.w3.org/2000/svg" width="24" height="24" viewBox="0 0 24 24" fill="none"><path d="M12.5 17.3c-.325 0-.622-.13-.889-.39L4.18 9.303a1.101 1.101 0 0 1-.254-.352 1.224 1.224 0 0 1-.078-.44c0-.214.048-.41.146-.585a1.12 1.12 0 0 1 .41-.41c.17-.105.362-.157.576-.157.313 0 .586.118.82.352l7.179 7.354h-.948L19.2 7.71c.235-.234.508-.352.82-.352.215 0 .407.052.577.157.169.097.302.234.4.41.104.176.156.37.156.586 0 .306-.11.57-.332.79L13.39 16.91a1.187 1.187 0 0 1-.889.39Z" fill="#0031FF"/></svg>