<svg xmlns="http://www.w3.org/2000/svg"><rect width="32" height="32" rx="8" fill="#C4170C"/><path d="m20.057 8.468 3.729-2.191c.407-.199.88.098.88.638v13.338c0 .25-.274.524-.612.524h-1.713a.613.613 0 0 1-.613-.612v-9.619l-1.146.675c-.407.198-.87-.11-.87-.561V9.02c0-.236.134-.45.345-.552Zm-7.527 9.71c-1.523 0-2.803-1.207-2.803-2.971 0-1.787 1.28-2.971 2.802-2.971s2.778 1.183 2.778 2.971c0 1.764-1.256 2.971-2.778 2.971Zm3.453-8.55c-.362 0-.58.216-.58.579v.627c-.652-.797-1.86-1.4-3.067-1.4-2.947 0-5.484 2.512-5.484 5.797 0 3.285 2.391 5.556 5.411 5.556a4.087 4.087 0 0 0 2.995-1.28c-.024 2.294-1.231 3.333-3.309 3.333-1.111 0-2.15-.338-3.357-1.11-.314-.218-.677-.146-.846.192l-.724 1.426c-.17.338-.121.652.217.87 1.498.965 3.261 1.449 4.783 1.449 3.986 0 6.184-2.15 6.184-7.103v-8.357c0-.363-.218-.58-.58-.58h-1.643Z" fill="#fff"/></svg>